# xmcd
#
# Track frame offsets: 
#        150
#        32212
#        53785
#        73655
#        95670
#        123560
#        147532
#        174274
#        195944
#        217334
#        239293
#        262368
#        285512
#        307819
#        328989
#
# Disc length: 4787 seconds
#
# Revision: 1
# Processed by: cddbd v1.5.2PL0 Copyright (c) Steve Scherf et al.
# Submitted via: ExactAudioCopy v0.95a5
#
DISCID=ee12b10f
DTITLE=Various Artist - Akella Presents - Modern Electric Blues - vol.2  CD2
DYEAR=2010
DGENRE=Blues
TTITLE0=Midnight Flow - PETER GARSTENAUER
TTITLE1=The Time Has Come - SNOWY WHITE
TTITLE2=I Got Mojo Workin' - SCOTT ELLISON
TTITLE3=White Crosses - OMAR and The HOWLERS
TTITLE4=You'll Know - BIG MIKE GRIFFIN
TTITLE5=Shake It - NUNO MINDELES
TTITLE6=Gasoline - GUITAR PETE
TTITLE7=Joe Went to the Water - HANK SHIZZOE
TTITLE8=Red Blood - BLUES COMPANY
TTITLE9=Con Todo Mi Carazon - GREGG ROLIE
TTITLE10=Alien - ATLANTA RHYTHM SECTION
TTITLE11=Ain't Going Down This Time - TONY JOE WHITE
TTITLE12=Where My Baby Might Me - KING JOHNSON
TTITLE13=Another Cup Of Coffee - MIKE and The MECHANICS
TTITLE14=Am I Lo Sing You - COCO MONTOYA
EXTD=
EXTT0=
EXTT1=
EXTT2=
EXTT3=
EXTT4=
EXTT5=
EXTT6=
EXTT7=
EXTT8=
EXTT9=
EXTT10=
EXTT11=
EXTT12=
EXTT13=
EXTT14=
PLAYORDER=
